<?xml version="1.0" encoding="UTF-8" standalone="no"?>
<svg
   xmlns:dc="http://purl.org/dc/elements/1.1/"
   xmlns:cc="http://creativecommons.org/ns#"
   xmlns:rdf="http://www.w3.org/1999/02/22-rdf-syntax-ns#"
   xmlns:svg="http://www.w3.org/2000/svg"
   xmlns="http://www.w3.org/2000/svg"
   viewBox="0 0 2133.3333 1600"
   height="1600"
   width="2133.3333"
   xml:space="preserve"
   id="svg2"
   version="1.1"><metadata
     id="metadata8"><rdf:RDF><cc:Work
         rdf:about=""><dc:format>image/svg+xml</dc:format><dc:type
           rdf:resource="http://purl.org/dc/dcmitype/StillImage" /></cc:Work></rdf:RDF></metadata><defs
     id="defs6"><linearGradient
       id="linearGradient22"
       spreadMethod="pad"
       gradientTransform="matrix(-5.718e-4,13082.3,13082.3,5.718e-4,8000,-419.9)"
       gradientUnits="userSpaceOnUse"
       y2="0"
       x2="1"
       y1="0"
       x1="0"><stop
         id="stop14"
         offset="0"
         style="stop-opacity:1;stop-color:#ffffff" /><stop
         id="stop16"
         offset="0.0115457"
         style="stop-opacity:1;stop-color:#ffffff" /><stop
         id="stop18"
         offset="0.752688"
         style="stop-opacity:1;stop-color:#58b5e6" /><stop
         id="stop20"
         offset="1"
         style="stop-opacity:1;stop-color:#4d89d0" /></linearGradient></defs><g
     transform="matrix(1.3333333,0,0,-1.3333333,0,1600)"
     id="g10"><g
       transform="scale(0.1)"
       id="g12"><path
         id="path24"
         style="fill:url(#linearGradient22);fill-opacity:1;fill-rule:nonzero;stroke:none"
         d="M 16000,0 H 0 V 12000 H 16000 V 0" /><path
         id="path26"
         style="fill:#caedf3;fill-opacity:1;fill-rule:nonzero;stroke:none"
         d="m 1593.59,4509.36 c 0,-515.16 -417.63,-932.79 -932.793,-932.79 -515.168,0 -932.789,417.63 -932.789,932.79 0,515.16 417.621,932.79 932.789,932.79 515.163,0 932.793,-417.63 932.793,-932.79" /><path
         id="path28"
         style="fill:#caedf3;fill-opacity:1;fill-rule:nonzero;stroke:none"
         d="m 2679.86,5130.07 c 0,-458.18 -371.42,-829.6 -829.59,-829.6 -458.17,0 -829.59,371.42 -829.59,829.6 0,458.17 371.42,829.59 829.59,829.59 458.17,0 829.59,-371.42 829.59,-829.59" /><path
         id="path30"
         style="fill:#caedf3;fill-opacity:1;fill-rule:nonzero;stroke:none"
         d="m 3219.47,4481.6 c 0,-378.09 -306.51,-684.6 -684.6,-684.6 -378.09,0 -684.6,306.51 -684.6,684.6 0,378.1 306.51,684.6 684.6,684.6 378.09,0 684.6,-306.5 684.6,-684.6" /><path
         id="path32"
         style="fill:#caedf3;fill-opacity:1;fill-rule:nonzero;stroke:none"
         d="m 4194.42,4113.88 c 0,-378.1 -306.5,-684.6 -684.6,-684.6 -378.09,0 -684.6,306.5 -684.6,684.6 0,378.09 306.51,684.6 684.6,684.6 378.1,0 684.6,-306.51 684.6,-684.6" /><path
         id="path34"
         style="fill:#caedf3;fill-opacity:1;fill-rule:nonzero;stroke:none"
         d="m 10731.6,2974.44 c 0,-378.09 -306.5,-684.6 -684.6,-684.6 -378.07,0 -684.58,306.51 -684.58,684.6 0,378.1 306.51,684.6 684.58,684.6 378.1,0 684.6,-306.5 684.6,-684.6" /><path
         id="path36"
         style="fill:#caedf3;fill-opacity:1;fill-rule:nonzero;stroke:none"
         d="m 9728.02,3257.4 c 0,-378.09 -306.51,-684.61 -684.6,-684.61 -378.1,0 -684.6,306.52 -684.6,684.61 0,378.09 306.5,684.59 684.6,684.59 378.09,0 684.6,-306.5 684.6,-684.59" /><path
         id="path38"
         style="fill:#caedf3;fill-opacity:1;fill-rule:nonzero;stroke:none"
         d="m 9092.77,3797 c 0,-322.72 -261.61,-584.34 -584.33,-584.34 -322.73,0 -584.35,261.62 -584.35,584.34 0,322.73 261.62,584.35 584.35,584.35 322.72,0 584.33,-261.62 584.33,-584.35" /><path
         id="path40"
         style="fill:#caedf3;fill-opacity:1;fill-rule:nonzero;stroke:none"
         d="m 10102.6,4452.71 c 0,-378.1 -306.52,-684.6 -684.61,-684.6 -378.1,0 -684.6,306.5 -684.6,684.6 0,378.09 306.5,684.59 684.6,684.59 378.09,0 684.61,-306.5 684.61,-684.59" /><path
         id="path42"
         style="fill:#caedf3;fill-opacity:1;fill-rule:nonzero;stroke:none"
         d="m 10977.1,3872.07 c 0,-378.09 -306.5,-684.6 -684.6,-684.6 -378.12,0 -684.62,306.51 -684.62,684.6 0,378.1 306.5,684.6 684.62,684.6 378.1,0 684.6,-306.5 684.6,-684.6" /><path
         id="path44"
         style="fill:#caedf3;fill-opacity:1;fill-rule:nonzero;stroke:none"
         d="m 11431.8,4113.88 c 0,-251.14 -203.6,-454.72 -454.7,-454.72 -251.2,0 -454.7,203.58 -454.7,454.72 0,251.13 203.5,454.71 454.7,454.71 251.1,0 454.7,-203.58 454.7,-454.71" /><path
         id="path46"
         style="fill:#caedf3;fill-opacity:1;fill-rule:nonzero;stroke:none"
         d="m 8684.6,3009.13 c 0,-378.09 -306.5,-684.6 -684.6,-684.6 -378.1,0 -684.6,306.51 -684.6,684.6 0,378.1 306.5,684.6 684.6,684.6 378.1,0 684.6,-306.5 684.6,-684.6" /><path
         id="path48"
         style="fill:#caedf3;fill-opacity:1;fill-rule:nonzero;stroke:none"
         d="m 10161.7,3706.44 c 0,-328.08 -265.97,-594.04 -594.04,-594.04 -328.08,0 -594.04,265.96 -594.04,594.04 0,328.07 265.96,594.03 594.04,594.03 328.07,0 594.04,-265.96 594.04,-594.03" /><path
         id="path50"
         style="fill:#caedf3;fill-opacity:1;fill-rule:nonzero;stroke:none"
         d="m 11788.3,3519.84 c 0,-328.07 -266,-594.03 -594.1,-594.03 -328.1,0 -594,265.96 -594,594.03 0,328.08 265.9,594.04 594,594.04 328.1,0 594.1,-265.96 594.1,-594.04" /><path
         id="path52"
         style="fill:#caedf3;fill-opacity:1;fill-rule:nonzero;stroke:none"
         d="m 15017.1,5130.07 c 0,-328.08 -266,-594.03 -594.1,-594.03 -328,0 -594,265.95 -594,594.03 0,328.07 266,594.03 594,594.03 328.1,0 594.1,-265.96 594.1,-594.03" /><path
         id="path54"
         style="fill:#caedf3;fill-opacity:1;fill-rule:nonzero;stroke:none"
         d="m 14316.9,4626.6 c 0,-328.07 -266,-594.04 -594,-594.04 -328.1,0 -594.1,265.97 -594.1,594.04 0,328.07 266,594.02 594.1,594.02 328,0 594,-265.95 594,-594.02" /><path
         id="path56"
         style="fill:#caedf3;fill-opacity:1;fill-rule:nonzero;stroke:none"
         d="m 13885.2,3951.51 c 0,-417.75 -338.6,-756.4 -756.4,-756.4 -417.7,0 -756.4,338.65 -756.4,756.4 0,417.75 338.7,756.4 756.4,756.4 417.8,0 756.4,-338.65 756.4,-756.4" /><path
         id="path58"
         style="fill:#caedf3;fill-opacity:1;fill-rule:nonzero;stroke:none"
         d="m 15953.6,5317.6 c 0,-328.08 -266,-594.04 -594.1,-594.04 -328,0 -594,265.96 -594,594.04 0,328.07 266,594.03 594,594.03 328.1,0 594.1,-265.96 594.1,-594.03" /><path
         id="path60"
         style="fill:#caedf3;fill-opacity:1;fill-rule:nonzero;stroke:none"
         d="m 15080.9,5124.78 c 0,-434.57 -352.3,-786.85 -786.8,-786.85 -434.6,0 -786.9,352.28 -786.9,786.85 0,434.57 352.3,786.85 786.9,786.85 434.5,0 786.8,-352.28 786.8,-786.85" /><path
         id="path62"
         style="fill:#caedf3;fill-opacity:1;fill-rule:nonzero;stroke:none"
         d="m 5478.74,3966.56 c 0,-378.09 -306.5,-684.61 -684.6,-684.61 -378.09,0 -684.6,306.52 -684.6,684.61 0,378.09 306.51,684.6 684.6,684.6 378.1,0 684.6,-306.51 684.6,-684.6" /><path
         id="path64"
         style="fill:#caedf3;fill-opacity:1;fill-rule:nonzero;stroke:none"
         d="m 5707.14,4174.92 c 0,-267.46 -216.82,-484.28 -484.28,-484.28 -267.46,0 -484.29,216.82 -484.29,484.28 0,267.46 216.83,484.29 484.29,484.29 267.46,0 484.28,-216.83 484.28,-484.29" /><path
         id="path66"
         style="fill:#caedf3;fill-opacity:1;fill-rule:nonzero;stroke:none"
         d="m 6278.86,3669.87 c 0,-315.75 -255.97,-571.73 -571.72,-571.73 -315.76,0 -571.72,255.98 -571.72,571.73 0,315.75 255.96,571.72 571.72,571.72 315.75,0 571.72,-255.97 571.72,-571.72" /><path
         id="path68"
         style="fill:#caedf3;fill-opacity:1;fill-rule:nonzero;stroke:none"
         d="m 4907.75,4536.04 c 0,-339.37 -275.11,-614.48 -614.47,-614.48 -339.36,0 -614.47,275.11 -614.47,614.48 0,339.35 275.11,614.46 614.47,614.46 339.36,0 614.47,-275.11 614.47,-614.46" /><path
         id="path70"
         style="fill:#bee9ef;fill-opacity:1;fill-rule:nonzero;stroke:none"
         d="M 5365.19,2737.19 C 5365.19,2271.51 4987.68,1894 4522,1894 c -465.68,0 -843.19,377.51 -843.19,843.19 0,465.68 377.51,843.19 843.19,843.19 465.68,0 843.19,-377.51 843.19,-843.19" /><path
         id="path72"
         style="fill:#bee9ef;fill-opacity:1;fill-rule:nonzero;stroke:none"
         d="m 6550.32,3098.14 c 0,-465.67 -377.5,-843.18 -843.18,-843.18 -465.68,0 -843.19,377.51 -843.19,843.18 0,465.69 377.51,843.2 843.19,843.2 465.68,0 843.18,-377.51 843.18,-843.2" /><path
         id="path74"
         style="fill:#bee9ef;fill-opacity:1;fill-rule:nonzero;stroke:none"
         d="m 2789.07,3212.66 c 0,-660.25 -535.24,-1195.48 -1195.48,-1195.48 -660.25,0 -1195.485,535.23 -1195.485,1195.48 0,660.25 535.235,1195.48 1195.485,1195.48 660.24,0 1195.48,-535.23 1195.48,-1195.48" /><path
         id="path76"
         style="fill:#bee9ef;fill-opacity:1;fill-rule:nonzero;stroke:none"
         d="m 4414.95,3084.23 c 0,-660.25 -535.23,-1195.53 -1195.48,-1195.53 -660.25,0 -1195.48,535.28 -1195.48,1195.53 0,660.25 535.23,1195.49 1195.48,1195.49 660.25,0 1195.48,-535.24 1195.48,-1195.49" /><path
         id="path78"
         style="fill:#bee9ef;fill-opacity:1;fill-rule:nonzero;stroke:none"
         d="m 6406.16,2923.76 c 0,-462 -374.53,-836.53 -836.54,-836.53 -462,0 -836.53,374.53 -836.53,836.53 0,462.01 374.53,836.53 836.53,836.53 462.01,0 836.54,-374.52 836.54,-836.53" /><path
         id="path80"
         style="fill:#bee9ef;fill-opacity:1;fill-rule:nonzero;stroke:none"
         d="m 12925.4,3274.39 c 0,-463.64 -375.8,-839.49 -839.4,-839.49 -463.7,0 -839.5,375.85 -839.5,839.49 0,463.64 375.8,839.49 839.5,839.49 463.6,0 839.4,-375.85 839.4,-839.49" /><path
         id="path82"
         style="fill:#bee9ef;fill-opacity:1;fill-rule:nonzero;stroke:none"
         d="m 11571.1,2532.11 c 0,-463.64 -375.8,-839.51 -839.5,-839.51 -463.6,0 -839.46,375.87 -839.46,839.51 0,463.63 375.86,839.48 839.46,839.48 463.7,0 839.5,-375.85 839.5,-839.48" /><path
         id="path84"
         style="fill:#bee9ef;fill-opacity:1;fill-rule:nonzero;stroke:none"
         d="m 13405,3848.62 c 0,-463.63 -375.9,-839.49 -839.5,-839.49 -463.6,0 -839.5,375.86 -839.5,839.49 0,463.64 375.9,839.5 839.5,839.5 463.6,0 839.5,-375.86 839.5,-839.5" /><path
         id="path86"
         style="fill:#bee9ef;fill-opacity:1;fill-rule:nonzero;stroke:none"
         d="m 7685.45,2737.19 c 0,-463.64 -375.85,-839.49 -839.49,-839.49 -463.64,0 -839.49,375.85 -839.49,839.49 0,463.64 375.85,839.49 839.49,839.49 463.64,0 839.49,-375.85 839.49,-839.49" /><path
         id="path88"
         style="fill:#bee9ef;fill-opacity:1;fill-rule:nonzero;stroke:none"
         d="m 9144.81,2330.76 c 0,-463.66 -375.85,-839.46 -839.49,-839.46 -463.64,0 -839.49,375.8 -839.49,839.46 0,463.63 375.85,839.48 839.49,839.48 463.64,0 839.49,-375.85 839.49,-839.48" /><path
         id="path90"
         style="fill:#f1fafb;fill-opacity:1;fill-rule:nonzero;stroke:none"
         d="m 1350.25,1979.2 c 0,-852.7 -691.273,-1544.001 -1544.004,-1544.001 -852.726,0 -1544.006,691.301 -1544.006,1544.001 0,852.71 691.28,1543.98 1544.006,1543.98 852.731,0 1544.004,-691.27 1544.004,-1543.98" /><path
         id="path92"
         style="fill:#f1fafb;fill-opacity:1;fill-rule:nonzero;stroke:none"
         d="m 1881.75,2974.44 c 0,-547.93 -444.18,-992.14 -992.109,-992.14 -547.938,0 -992.121,444.21 -992.121,992.14 0,547.93 444.183,992.12 992.121,992.12 547.929,0 992.109,-444.19 992.109,-992.12" /><path
         id="path94"
         style="fill:#f1fafb;fill-opacity:1;fill-rule:nonzero;stroke:none"
         d="m 8864.79,988.602 c 0,-557.5 -451.93,-1009.4028 -1009.41,-1009.4028 -557.49,0 -1009.42,451.9028 -1009.42,1009.4028 0,557.498 451.93,1009.398 1009.42,1009.398 557.48,0 1009.41,-451.9 1009.41,-1009.398" /><path
         id="path96"
         style="fill:#f1fafb;fill-opacity:1;fill-rule:nonzero;stroke:none"
         d="m 660.797,4032.56 c 0,-612.37 -496.426,-1108.8 -1108.801,-1108.8 -612.376,0 -1108.806,496.43 -1108.806,1108.8 0,612.38 496.43,1108.81 1108.806,1108.81 612.375,0 1108.801,-496.43 1108.801,-1108.81" /><path
         id="path98"
         style="fill:#f1fafb;fill-opacity:1;fill-rule:nonzero;stroke:none"
         d="m 4064.97,1751.7 c 0,-546.7 -443.21,-989.899 -989.93,-989.899 -546.71,0 -989.92,443.199 -989.92,989.899 0,546.74 443.21,989.94 989.92,989.94 546.72,0 989.93,-443.2 989.93,-989.94" /><path
         id="path100"
         style="fill:#f1fafb;fill-opacity:1;fill-rule:nonzero;stroke:none"
         d="m 4961.46,1309.3 c 0,-423.601 -343.41,-766.999 -767.04,-766.999 -423.62,0 -767.04,343.398 -767.04,766.999 0,423.6 343.42,767.06 767.04,767.06 423.63,0 767.04,-343.46 767.04,-767.06" /><path
         id="path102"
         style="fill:#f1fafb;fill-opacity:1;fill-rule:nonzero;stroke:none"
         d="m 10772.8,1491.3 c 0,-576.999 -467.8,-1044.8 -1044.78,-1044.8 -577.01,0 -1044.78,467.801 -1044.78,1044.8 0,576.98 467.77,1044.74 1044.78,1044.74 576.98,0 1044.78,-467.76 1044.78,-1044.74" /><path
         id="path104"
         style="fill:#f1fafb;fill-opacity:1;fill-rule:nonzero;stroke:none"
         d="m 10020.6,2036.4 c 0,-578.7 -469.16,-1047.798 -1047.87,-1047.798 -578.7,0 -1047.83,469.098 -1047.83,1047.798 0,578.7 469.13,1047.83 1047.83,1047.83 578.71,0 1047.87,-469.13 1047.87,-1047.83" /><path
         id="path106"
         style="fill:#f1fafb;fill-opacity:1;fill-rule:nonzero;stroke:none"
         d="M 13929.1,872.102 C 13929.1,119 13318.6,-491.5 12565.5,-491.5 c -753.1,0 -1363.6,610.5 -1363.6,1363.602 0,752.998 610.5,1363.528 1363.6,1363.528 753.1,0 1363.6,-610.53 1363.6,-1363.528" /><path
         id="path108"
         style="fill:#f1fafb;fill-opacity:1;fill-rule:nonzero;stroke:none"
         d="m 14618,2096.16 c 0,-753.06 -610.5,-1363.558 -1363.5,-1363.558 -753.1,0 -1363.6,610.498 -1363.6,1363.558 0,753.09 610.5,1363.59 1363.6,1363.59 753,0 1363.5,-610.5 1363.5,-1363.59" /><path
         id="path110"
         style="fill:#f1fafb;fill-opacity:1;fill-rule:nonzero;stroke:none"
         d="m 17085,4300.47 c 0,-682.16 -553,-1235.17 -1235.1,-1235.17 -682.2,0 -1235.2,553.01 -1235.2,1235.17 0,682.17 553,1235.16 1235.2,1235.16 682.1,0 1235.1,-552.99 1235.1,-1235.16" /><path
         id="path112"
         style="fill:#f1fafb;fill-opacity:1;fill-rule:nonzero;stroke:none"
         d="m 14395.3,3564.57 c 0,-490.5 -397.6,-888.12 -888.1,-888.12 -490.5,0 -888.1,397.62 -888.1,888.12 0,490.51 397.6,888.14 888.1,888.14 490.5,0 888.1,-397.63 888.1,-888.14" /><path
         id="path114"
         style="fill:#f1fafb;fill-opacity:1;fill-rule:nonzero;stroke:none"
         d="m 15282.9,3773.41 c -143.1,-369.05 -558.3,-552.19 -927.4,-409.06 -369,143.12 -552.1,558.33 -409,927.37 143.1,369.05 558.3,552.19 927.4,409.06 369,-143.12 552.2,-558.33 409,-927.37" /><path
         id="path116"
         style="fill:#f1fafb;fill-opacity:1;fill-rule:nonzero;stroke:none"
         d="m 16789.4,5629.83 c 0,-364.38 -295.4,-659.76 -659.8,-659.76 -364.3,0 -659.7,295.38 -659.7,659.76 0,364.39 295.4,659.77 659.7,659.77 364.4,0 659.8,-295.38 659.8,-659.77" /><path
         id="path118"
         style="fill:#f1fafb;fill-opacity:1;fill-rule:nonzero;stroke:none"
         d="m 15849.9,2883.02 c 0,-538.14 -436.3,-974.42 -974.4,-974.42 -538.1,0 -974.4,436.28 -974.4,974.42 0,538.13 436.3,974.37 974.4,974.37 538.1,0 974.4,-436.24 974.4,-974.37" /><path
         id="path120"
         style="fill:#f1fafb;fill-opacity:1;fill-rule:nonzero;stroke:none"
         d="m 12575.1,2096.16 c 0,-434.56 -352.3,-786.86 -786.8,-786.86 -434.6,0 -786.9,352.3 -786.9,786.86 0,434.57 352.3,786.86 786.9,786.86 434.5,0 786.8,-352.29 786.8,-786.86" /><path
         id="path122"
         style="fill:#f1fafb;fill-opacity:1;fill-rule:nonzero;stroke:none"
         d="m 16339.2,1448.8 c 0,-434.6 -352.3,-786.902 -786.8,-786.902 -434.6,0 -786.9,352.302 -786.9,786.902 0,434.5 352.3,786.83 786.9,786.83 434.5,0 786.8,-352.33 786.8,-786.83" /><path
         id="path124"
         style="fill:#f1fafb;fill-opacity:1;fill-rule:nonzero;stroke:none"
         d="m 16751.9,2096.16 c 0,-354.06 -287,-641.06 -641,-641.06 -354,0 -641,287 -641,641.06 0,354.04 287,641.03 641,641.03 354,0 641,-286.99 641,-641.03" /><path
         id="path126"
         style="fill:#f1fafb;fill-opacity:1;fill-rule:nonzero;stroke:none"
         d="m 15080.9,1491.3 c 0,-434.6 -352.3,-786.902 -786.8,-786.902 -434.6,0 -786.9,352.302 -786.9,786.902 0,434.5 352.3,786.82 786.9,786.82 434.5,0 786.8,-352.32 786.8,-786.82" /><path
         id="path128"
         style="fill:#f1fafb;fill-opacity:1;fill-rule:nonzero;stroke:none"
         d="m 17126.1,2783.38 c 0,-434.57 -352.3,-786.88 -786.9,-786.88 -434.6,0 -786.8,352.31 -786.8,786.88 0,434.57 352.2,786.85 786.8,786.85 434.6,0 786.9,-352.28 786.9,-786.85" /><path
         id="path130"
         style="fill:#f1fafb;fill-opacity:1;fill-rule:nonzero;stroke:none"
         d="m 11415,1243.4 c 0,-512.798 -415.7,-928.498 -928.5,-928.498 -512.78,0 -928.48,415.7 -928.48,928.498 0,512.8 415.7,928.53 928.48,928.53 512.8,0 928.5,-415.73 928.5,-928.53" /><path
         id="path132"
         style="fill:#f1fafb;fill-opacity:1;fill-rule:nonzero;stroke:none"
         d="m 11726,239.199 c 0,-512.797 -415.7,-928.5 -928.5,-928.5 -512.8,0 -928.5,415.703 -928.5,928.5 0,512.801 415.7,928.501 928.5,928.501 512.8,0 928.5,-415.7 928.5,-928.501" /><path
         id="path134"
         style="fill:#f1fafb;fill-opacity:1;fill-rule:nonzero;stroke:none"
         d="m 16490,144.199 c 0,-1172.099 299.4,-635.699 -5692.5,-635.699 -5991.93,0 -12007.5,-911 -12087.5,62 -250.55,3047.28 5796.08,2408.7 12267.1,1678.1 5991.9,0 5512.9,67.6 5512.9,-1104.401" /><path
         id="path136"
         style="fill:#f1fafb;fill-opacity:1;fill-rule:nonzero;stroke:none"
         d="m 6845.96,988.602 c 0,-704.903 -571.43,-1276.403 -1276.34,-1276.403 -704.9,0 -1276.34,571.5 -1276.34,1276.403 0,704.898 571.44,1276.308 1276.34,1276.308 704.91,0 1276.34,-571.41 1276.34,-1276.308" /><path
         id="path138"
         style="fill:#f1fafb;fill-opacity:1;fill-rule:nonzero;stroke:none"
         d="m 7465.83,1996 c 0,-434.9 -352.53,-787.4 -787.4,-787.4 -434.88,0 -787.41,352.5 -787.41,787.4 0,434.85 352.53,787.38 787.41,787.38 434.87,0 787.4,-352.53 787.4,-787.38" /><path
         id="path140"
         style="fill:#f1fafb;fill-opacity:1;fill-rule:nonzero;stroke:none"
         d="m 8388.19,2653.14 c 0,-434.87 -352.53,-787.44 -787.4,-787.44 -434.87,0 -787.41,352.57 -787.41,787.44 0,434.88 352.54,787.41 787.41,787.41 434.87,0 787.4,-352.53 787.4,-787.41" /><path
         id="path142"
         style="fill:#f1fafb;fill-opacity:1;fill-rule:nonzero;stroke:none"
         d="m 2511.18,1692.6 c 0,-579.3 -469.67,-1048.998 -1049.03,-1048.998 -579.361,0 -1049.029,469.698 -1049.029,1048.998 0,579.37 469.668,1049.04 1049.029,1049.04 579.36,0 1049.03,-469.67 1049.03,-1049.04" /></g></g></svg>